<svg xmlns="http://www.w3.org/2000/svg" width="47.091" height="48.618" viewBox="0 0 47.091 48.618">
  <path id="amazon" d="M27.643,16.434c-5.285.2-18.394,1.682-18.394,12.752,0,11.883,15.008,12.372,19.913,4.689a50.1,50.1,0,0,0,4.916,5.079l6.164-6.078s-3.5-2.747-3.5-5.731V11.182c0-2.746-2.659-8.932-12.188-8.932C15,2.25,9.932,8.218,9.932,13.569l7.976.738c1.769-5.371,5.882-5.371,5.882-5.371,4.417-.011,3.852,3.233,3.852,7.5Zm0,9.419c0,8.682-9.137,7.379-9.137,1.866,0-5.123,5.481-6.154,9.137-6.272ZM42.4,43.6c-.835,1.085-7.6,7.271-18.938,7.271S3.443,43.109.784,39.906c-.738-.835.108-1.227.6-.9C9.336,43.836,21.761,51.791,41.8,42.294,42.618,41.893,43.248,42.512,42.4,43.6Zm4.318.239a9.049,9.049,0,0,1-2.3,3.365c-.6.488-1.031.293-.705-.412s2.094-5.047,1.378-5.968c-.705-.9-4.016-.466-5.209-.347-1.171.108-1.411.218-1.519-.032-.25-.619,2.355-1.682,4.07-1.9,1.7-.2,4.45-.086,4.991.619.4.554,0,2.94-.705,4.677Z" transform="translate(-0.494 -2.25)" fill="#f5fff9"/>
</svg>
