<svg xmlns="http://www.w3.org/2000/svg" width="25.158" height="25.158" viewBox="0 0 25.158 25.158">
  <g id="arrow-down-left" transform="translate(10.988 34.702) rotate(-135)">
    <path id="Path_58" data-name="Path 58" d="M6.514,16.875a.889.889,0,0,1,.889.889v8h8a.889.889,0,1,1,0,1.779H6.514a.889.889,0,0,1-.889-.889V17.764A.889.889,0,0,1,6.514,16.875Z" transform="translate(0 -1.886)" fill="#1aa84f" fill-rule="evenodd"/>
    <path id="Path_59" data-name="Path 59" d="M23.151,8.135a.889.889,0,0,1,0,1.259L7.143,25.4a.89.89,0,0,1-1.259-1.259L21.892,8.135a.889.889,0,0,1,1.259,0Z" fill="#1aa84f" fill-rule="evenodd"/>
  </g>
</svg>
