<svg xmlns="http://www.w3.org/2000/svg" width="12.037" height="10.533" viewBox="0 0 12.037 10.533">
  <g id="arrow-right-short" transform="translate(-9 -10.123)">
    <path id="Path_56" data-name="Path 56" d="M18.219,10.344a.752.752,0,0,1,1.065,0L23.8,14.858a.752.752,0,0,1,0,1.065l-4.513,4.513a.753.753,0,1,1-1.065-1.065L22.2,15.39l-3.982-3.981a.752.752,0,0,1,0-1.065Z" transform="translate(-2.982)" fill="#f5fff9" fill-rule="evenodd"/>
    <path id="Path_57" data-name="Path 57" d="M9,17.627a.752.752,0,0,1,.752-.752h9.778a.752.752,0,1,1,0,1.5H9.752A.752.752,0,0,1,9,17.627Z" transform="translate(0 -2.237)" fill="#f5fff9" fill-rule="evenodd"/>
  </g>
</svg>
