<svg id="arrow-up-right-circle" xmlns="http://www.w3.org/2000/svg" width="19.738" height="19.738" viewBox="0 0 19.738 19.738">
  <path id="Path_60" data-name="Path 60" d="M9.869,18.5A8.635,8.635,0,1,0,1.234,9.869,8.635,8.635,0,0,0,9.869,18.5Zm0,1.234A9.869,9.869,0,1,0,0,9.869,9.869,9.869,0,0,0,9.869,19.738Z" fill="#114a90" fill-rule="evenodd"/>
  <path id="Path_61" data-name="Path 61" d="M18.034,11.25H13.1a.617.617,0,0,0,0,1.234h3.445L11.429,17.6a.618.618,0,0,0,.873.873l5.115-5.116V16.8a.617.617,0,0,0,1.234,0V11.867A.617.617,0,0,0,18.034,11.25Z" transform="translate(-5.081 -5.082)" fill="#114a90" fill-rule="evenodd"/>
</svg>
