<svg xmlns="http://www.w3.org/2000/svg" width="19.32" height="19.323" viewBox="0 0 19.32 19.323">
  <path id="call" d="M17.737,21.573a8.128,8.128,0,0,1-3.8-1.294A24.676,24.676,0,0,1,7.98,15.821,22.638,22.638,0,0,1,3.5,9.861c-1.589-2.89-1.318-4.4-1.015-5.052a4.034,4.034,0,0,1,1.581-1.7A7.6,7.6,0,0,1,5.3,2.457L5.424,2.4a1.154,1.154,0,0,1,.947-.086,2.771,2.771,0,0,1,.9.69,14.943,14.943,0,0,1,2.249,3.34,3.324,3.324,0,0,1,.441,1.368A2.163,2.163,0,0,1,9.411,9c-.056.077-.113.151-.167.223-.328.431-.4.556-.353.778a8.18,8.18,0,0,0,1.992,2.955A7.847,7.847,0,0,0,13.8,14.9c.232.05.359-.025.8-.366.064-.048.129-.1.2-.15a2.173,2.173,0,0,1,1.305-.584h0a3.128,3.128,0,0,1,1.374.482,16.465,16.465,0,0,1,3.327,2.234,2.783,2.783,0,0,1,.693.9,1.163,1.163,0,0,1-.086.949c-.016.036-.034.075-.052.118a7.612,7.612,0,0,1-.659,1.233,4.031,4.031,0,0,1-1.7,1.578,2.908,2.908,0,0,1-1.275.28Z" transform="translate(-2.257 -2.25)" fill="#f5fff9"/>
</svg>
