<svg xmlns="http://www.w3.org/2000/svg" width="22.877" height="21" viewBox="0 0 22.877 21">
  <path id="cart" d="M20.018,3.212H6.122l-.134-.536A2.918,2.918,0,0,0,4.982,1,2.81,2.81,0,0,0,3.128.352H.939A.91.91,0,0,0,.268.62.965.965,0,0,0,0,1.334a.917.917,0,0,0,.939.939H3.128a.872.872,0,0,1,.983.759L6.3,14.471a2.908,2.908,0,0,0,2.77,2.1H18.1a.966.966,0,0,0,.715-.268.91.91,0,0,0,.268-.67.869.869,0,0,0-.983-.983H9.07a.924.924,0,0,1-.893-.536l-.09-.4h9.562a2.708,2.708,0,0,0,1.631-.536,2.671,2.671,0,0,0,1.005-1.385l2.591-5.5V6.07a2.821,2.821,0,0,0-2.859-2.858Zm-1.43,7.82v.09a.826.826,0,0,1-.939.67H7.73L6.479,5.133H20.018a.846.846,0,0,1,.939.759Zm-7.149,8.4a1.906,1.906,0,0,1-1.921,1.921A1.8,1.8,0,0,1,8.2,20.793a1.941,1.941,0,0,1,0-2.726,1.8,1.8,0,0,1,1.319-.558,1.906,1.906,0,0,1,1.921,1.921Zm7.64,0a1.906,1.906,0,1,1-.558-1.362,1.855,1.855,0,0,1,.558,1.362Z" transform="translate(0 -0.352)" fill="#f5fff9"/>
</svg>
