<svg xmlns="http://www.w3.org/2000/svg" width="57.172" height="53.984" viewBox="0 0 57.172 53.984">
  <g id="noun-checkout-completed-4316449" transform="translate(-3.053)">
    <path id="Path_3" data-name="Path 3" d="M420.336,323.87a11.2,11.2,0,1,0,7.922,3.282A11.2,11.2,0,0,0,420.336,323.87Zm5.78,9.388-6.508,6.508a2.034,2.034,0,0,1-2.876,0l-3.194-3.194h0a2.033,2.033,0,1,1,2.876-2.876l1.756,1.756,5.07-5.07a2.034,2.034,0,0,1,2.876,2.876Z" transform="translate(-371.315 -292.293)" fill="#f5fff9"/>
    <path id="Path_4" data-name="Path 4" d="M109.527,215.226h-17.3a2.781,2.781,0,0,1-2.412-1.5,3.207,3.207,0,0,1,.055-3.291l.491-.7v-.016h17.185a14.393,14.393,0,0,1-.169-2.232,15.032,15.032,0,0,1,14.887-15.018,3.471,3.471,0,0,0-3.471-3.58H86.265l-1.2-6.1a1.732,1.732,0,0,0-1.7-1.4h-5.2a1.733,1.733,0,0,0-1.222,2.958,1.7,1.7,0,0,0,1.222.507h3.776l4.748,24.159h0a6.744,6.744,0,0,0,.1,6.4,6.194,6.194,0,0,0,5.441,3.269H112.4a15.025,15.025,0,0,1-2.876-3.465Z" transform="translate(-73.383 -164.707)" fill="#f5fff9"/>
    <path id="Path_5" data-name="Path 5" d="M200.921,25.905l2.276,1.075h0a1.629,1.629,0,0,0,1.512-.06l3.029-1.725,3.171,1.741a1.643,1.643,0,0,0,1.566.005l3.263-1.746,2.958,1.719a1.645,1.645,0,0,0,1.528.066l2.254-1.069v16.95h3.274V23.319a1.636,1.636,0,0,0-2.341-1.479L219.6,23.651l-3.007-1.746A1.612,1.612,0,0,0,215,21.878L211.7,23.641l-3.2-1.757a1.65,1.65,0,0,0-1.6.011l-3.083,1.763-3.842-1.817a1.631,1.631,0,0,0-2.336,1.479V42.861h3.274Z" transform="translate(-181.928 -21.679)" fill="#f5fff9"/>
    <path id="Path_6" data-name="Path 6" d="M316.531,114.01h-7.685a1.42,1.42,0,1,0,0,2.839h7.685a1.42,1.42,0,0,0,0-2.839Z" transform="translate(-280.234 -104.362)" fill="#f5fff9"/>
    <path id="Path_7" data-name="Path 7" d="M257.725,111.67a1.664,1.664,0,1,0,1.177.487A1.663,1.663,0,0,0,257.725,111.67Z" transform="translate(-234.238 -102.267)" fill="#f5fff9"/>
    <path id="Path_8" data-name="Path 8" d="M316.531,178.24h-7.685a1.419,1.419,0,1,0,0,2.839h7.685a1.419,1.419,0,0,0,0-2.839Z" transform="translate(-280.234 -161.88)" fill="#f5fff9"/>
    <path id="Path_9" data-name="Path 9" d="M257.725,175.89a1.665,1.665,0,1,0,1.177.488A1.666,1.666,0,0,0,257.725,175.89Z" transform="translate(-234.238 -159.776)" fill="#f5fff9"/>
  </g>
</svg>
