<svg xmlns="http://www.w3.org/2000/svg" width="41.603" height="52" viewBox="0 0 41.603 52">
  <g id="noun-shop-4316044" transform="translate(-29.921)">
    <path id="Path_50" data-name="Path 50" d="M129.387,235.35v3.32a5.3,5.3,0,0,0,4.948,5.341,5.2,5.2,0,0,0,4.529-2.237,1.109,1.109,0,0,1,1.823-.029,5.2,5.2,0,0,0,8.6,0,1.1,1.1,0,0,1,1.8,0,5.2,5.2,0,0,0,8.6,0,1.109,1.109,0,0,1,1.824.029,5.2,5.2,0,0,0,4.529,2.237,5.3,5.3,0,0,0,4.949-5.341v-3.32Z" transform="translate(-99.464 -213.56)" fill="#f5fff9"/>
    <path id="Path_51" data-name="Path 51" d="M170.965,23.106,166.816,12.09H168.8a2.167,2.167,0,1,0,0-4.335h-9.406V5.527a1.3,1.3,0,0,0-1.3-1.3H142.242a1.3,1.3,0,0,0-1.3,1.3V7.755h-9.41a2.167,2.167,0,0,0,0,4.335h1.982l-4.149,11.016ZM143.543,6.826h13.249v6.192H143.543Z" transform="translate(-99.444 -4.227)" fill="#f5fff9"/>
    <path id="Path_52" data-name="Path 52" d="M175.153,338.988a8.173,8.173,0,0,1-10.4,0A8.175,8.175,0,0,1,163.177,340V350.49H150.611v-9.765a8.237,8.237,0,0,1-1.452.13c-.131,0-.262,0-.394-.009a8.015,8.015,0,0,1-3.292-.884v17.607a1.857,1.857,0,0,0,1.857,1.857h21.2V343.5H179.4v15.925h2.786a1.857,1.857,0,0,0,1.857-1.857V339.961a8.015,8.015,0,0,1-3.292.884,8.137,8.137,0,0,1-5.594-1.856Z" transform="translate(-114.033 -307.425)" fill="#f5fff9"/>
    <path id="Path_53" data-name="Path 53" d="M411.52,452.61a1.764,1.764,0,1,0,1.247.517A1.765,1.765,0,0,0,411.52,452.61Z" transform="translate(-353.4 -410.337)" fill="#f5fff9"/>
    <path id="Path_54" data-name="Path 54" d="M232.445,373.983l2.787-2.787a.769.769,0,1,1,1.087,1.088l-2.787,2.787a.769.769,0,1,1-1.087-1.088Z" transform="translate(-192.602 -336.395)" fill="#f5fff9"/>
    <path id="Path_55" data-name="Path 55" d="M255.379,398.006a.769.769,0,0,0,1.087,0l2.787-2.787a.769.769,0,1,0-1.087-1.087l-2.787,2.787a.769.769,0,0,0,0,1.087Z" transform="translate(-213.374 -357.168)" fill="#f5fff9"/>
  </g>
</svg>
