<svg xmlns="http://www.w3.org/2000/svg" width="19.682" height="21.16" viewBox="0 0 19.682 21.16">
  <g id="noun-cart-5692822" transform="translate(-144.021 -70)">
    <path id="Path_70" data-name="Path 70" d="M267.524,444.5a1.524,1.524,0,1,0,1.077.446A1.523,1.523,0,0,0,267.524,444.5Z" transform="translate(-116.08 -356.387)" fill="#f5fff9"/>
    <path id="Path_71" data-name="Path 71" d="M415.044,444.5a1.523,1.523,0,1,0,1.077.446A1.524,1.524,0,0,0,415.044,444.5Z" transform="translate(-256.465 -356.387)" fill="#f5fff9"/>
    <path id="Path_72" data-name="Path 72" d="M161.846,73.047H148.219l-.161-.753A2.878,2.878,0,0,0,145.24,70h-.373a.846.846,0,0,0,0,1.693h.373a1.185,1.185,0,0,1,1.126.948l2.412,11.485A2.895,2.895,0,0,0,151.6,86.42h9.522a.846.846,0,1,0,0-1.693H151.6a1.193,1.193,0,0,1-1.159-.948l-1.871-9.039h13.28a.161.161,0,0,1,.135.068.178.178,0,0,1,0,.144l-1.523,6.094a.178.178,0,0,1-.169.127h-5.459a.846.846,0,1,0,0,1.693h5.493a1.862,1.862,0,0,0,1.811-1.414l1.515-6.094h0a1.82,1.82,0,0,0-.356-1.591,1.862,1.862,0,0,0-1.447-.719Z" fill="#f5fff9"/>
    <path id="Path_73" data-name="Path 73" d="M280.847,301a.846.846,0,1,0,0,1.693h.846a.846.846,0,1,0,0-1.693Z" transform="translate(-129.403 -219.828)" fill="#f5fff9"/>
  </g>
</svg>
