<svg id="Group_9" data-name="Group 9" xmlns="http://www.w3.org/2000/svg" width="22" height="21.999" viewBox="0 0 22 21.999">
  <path id="Path_1" data-name="Path 1" d="M23.239,23.238a1.375,1.375,0,0,1,1.946,0l5.293,5.293a1.375,1.375,0,1,1-1.944,1.946l-5.293-5.293a1.375,1.375,0,0,1,0-1.946Z" transform="translate(-8.882 -8.88)" fill="#6d6d6d" fill-rule="evenodd"/>
  <path id="Path_2" data-name="Path 2" d="M8.937,16.5A7.562,7.562,0,1,0,1.375,8.937,7.562,7.562,0,0,0,8.937,16.5Zm8.937-7.562A8.937,8.937,0,1,1,8.937,0,8.937,8.937,0,0,1,17.875,8.937Z" fill="#6d6d6d" fill-rule="evenodd"/>
</svg>
