<svg xmlns="http://www.w3.org/2000/svg" width="19.477" height="19.477" viewBox="0 0 19.477 19.477">
  <path id="store" d="M8.843,4.948H5.921a.974.974,0,0,0-.974.974V7.869a.974.974,0,0,0,.974.974H7.869a.974.974,0,0,0,.974-.974ZM5.931,10.791v9.7H7.869V15.66a1.948,1.948,0,0,1,1.948-1.948h1.948a1.948,1.948,0,0,1,1.948,1.948v4.835h5.856v-9.7H17.607a2.909,2.909,0,0,1-1.948-.744,2.91,2.91,0,0,1-1.948.744H11.764a2.909,2.909,0,0,1-1.948-.744,2.91,2.91,0,0,1-1.948.744Zm-1.948-.734A2.914,2.914,0,0,1,3,7.869V5.921A2.921,2.921,0,0,1,5.921,3H19.555a2.921,2.921,0,0,1,2.921,2.921V7.869a2.915,2.915,0,0,1-.961,2.167V20.5a1.948,1.948,0,0,1-1.948,1.948h-7.44a1.958,1.958,0,0,1-.364.034H9.817a1.958,1.958,0,0,1-.363-.034H5.933a1.948,1.948,0,0,1-1.948-1.948V10.055ZM11.764,20.5V15.66H9.817v4.835h1.948ZM14.686,4.948h-3.9V7.869a.974.974,0,0,0,.974.974h1.948a.974.974,0,0,0,.974-.974Zm1.948,0V7.869a.974.974,0,0,0,.974.974h1.948a.974.974,0,0,0,.974-.974V5.921a.974.974,0,0,0-.974-.974Zm0,8.764h.974a.974.974,0,0,1,.974.974v2.921a.974.974,0,0,1-.974.974h-.974a.974.974,0,0,1-.974-.974V14.686A.974.974,0,0,1,16.634,13.712Z" transform="translate(-3 -3)" fill="#1aa84f"/>
</svg>
